<svg width="64" height="64" viewBox="0 0 64 64" xmlns="http://www.w3.org/2000/svg">
  <rect width="64" height="64" rx="14" fill="#111827"/>
  <g fill="none" stroke="#f97316" stroke-width="4">
    <rect x="12" y="12" width="17" height="17" rx="4.5"/>
    <rect x="35" y="12" width="17" height="17" rx="4.5"/>
    <rect x="12" y="35" width="17" height="17" rx="4.5"/>
  </g>
  <g fill="#f97316">
    <rect x="17.5" y="17.5" width="6" height="6" rx="1.5"/>
    <rect x="40.5" y="17.5" width="6" height="6" rx="1.5"/>
    <rect x="17.5" y="40.5" width="6" height="6" rx="1.5"/>
  </g>
  <path d="M43.5 34.5c-4.4 0-8 3.4-8 7.6 0 5.5 6.8 10.5 7.6 11.1a.8.8 0 0 0 .8 0c.8-.6 7.6-5.6 7.6-11.1 0-4.2-3.6-7.6-8-7.6z" fill="#ffffff"/>
  <circle cx="43.5" cy="42" r="2.6" fill="#111827"/>
</svg>
